<svg width="507" height="480" viewBox="0 0 507 480" fill="none" xmlns="http://www.w3.org/2000/svg">
<path d="M250.41 381.009C437.841 248.993 342.373 129.232 183.447 128.908M183.447 128.908L163.2 227.474M183.447 128.908L205.789 20.1454M118.287 31.8183C163.721 39.4499 193.832 78.3533 185.542 118.711C177.251 159.07 133.699 185.6 88.2654 177.968C42.8315 170.336 12.7206 131.433 21.0109 91.0748C29.3012 50.7167 72.8533 24.1866 118.287 31.8183ZM418.735 312.13C464.169 319.762 494.279 358.665 485.989 399.023C477.699 439.381 434.147 465.911 388.713 458.28C343.279 450.648 313.168 411.745 321.458 371.387C329.749 331.028 373.301 304.498 418.735 312.13Z" stroke="black" stroke-width="39" stroke-linecap="round"/>
</svg>
